<?xml version="1.0" encoding="utf-8"?>
<!-- Generator: Adobe Illustrator 24.0.0, SVG Export Plug-In . SVG Version: 6.00 Build 0)  -->
<svg version="1.1" id="Calque_1" xmlns="http://www.w3.org/2000/svg" xmlns:xlink="http://www.w3.org/1999/xlink" x="0px" y="0px"
	 viewBox="0 0 279.09 266.23" style="enable-background:new 0 0 279.09 266.23;" xml:space="preserve">
<style type="text/css">
	.st0{fill:#FFFFFF;}
</style>
<g>
	<path class="st0" d="M45.11,193.33c-5.46-0.12-10.91-3.55-13.88-10.22c-2.89-6.48-1.94-12.83,2.81-18.18
		c4.87-5.49,11.13-7.37,18.09-4.84c2.88,1.05,4.42,0.45,6.41-1.55c18.91-19.04,37.88-38.03,56.93-56.93c1.93-1.91,2.3-3.4,1.36-6
		c-2.68-7.39-0.08-15.02,6.18-19.44c6.05-4.28,14.11-4.2,20.09,0.19c5.98,4.39,8.57,11.98,5.91,19.09c-1.1,2.93-0.37,4.48,1.63,6.39
		c4.7,4.48,9.3,9.09,13.77,13.81c1.81,1.91,3.3,2.18,5.97,1.59c3.57-0.78,7.46-0.05,11.19-0.22c1.85-0.08,4.31-0.09,5.43-1.2
		c19.34-19.09,38.55-38.3,57.63-57.65c1.1-1.12,1.51-3.81,1.05-5.41c-2.34-8.08,0.49-16.21,7.52-20.39
		c6.61-3.93,15.22-2.88,20.76,2.52c5.63,5.5,6.76,14.42,2.67,21.14c-4.24,6.98-12.29,9.68-20.46,7.33c-1.58-0.46-4.23,0.1-5.37,1.22
		c-19.21,18.97-38.24,38.14-57.4,57.17c-1.91,1.9-2.34,3.37-1.4,5.99c2.68,7.43,0.09,14.99-6.19,19.44
		c-6.06,4.28-14.14,4.21-20.09-0.19c-5.99-4.43-8.57-12-5.9-19.1c1.1-2.92,0.4-4.48-1.61-6.39c-4.71-4.48-9.31-9.08-13.79-13.79
		c-1.81-1.91-3.3-2.17-5.98-1.59c-3.58,0.78-7.46,0.05-11.19,0.22c-1.85,0.08-4.3,0.1-5.43,1.21
		c-19.22,18.97-38.24,38.14-57.42,57.15c-2.13,2.11-2.21,3.74-1.3,6.45C66.78,182.1,58.58,193.24,45.11,193.33z M262.08,38.59
		c-4.72-0.07-8.6,3.69-8.67,8.43c-0.07,4.72,3.7,8.62,8.42,8.69c4.7,0.07,8.61-3.72,8.68-8.44
		C270.58,42.56,266.8,38.66,262.08,38.59z M132.79,81.61c-4.73,0.08-8.49,3.95-8.42,8.68c0.07,4.72,3.97,8.51,8.67,8.44
		c4.71-0.08,8.5-3.99,8.43-8.69C141.4,85.32,137.5,81.54,132.79,81.61z M176.06,141.75c4.71-0.08,8.5-3.99,8.43-8.69
		c-0.08-4.73-3.96-8.5-8.68-8.43c-4.73,0.07-8.5,3.96-8.42,8.68C167.45,138.04,171.35,141.83,176.06,141.75z M55.45,176.34
		c0.07-4.71-3.71-8.61-8.43-8.68c-4.72-0.07-8.6,3.69-8.68,8.43c-0.07,4.72,3.7,8.62,8.42,8.69
		C51.46,184.85,55.37,181.05,55.45,176.34z"/>
	<path class="st0" d="M0,0.16c2.74,0,5.15,0,8.08,0c0,85.9,0,171.52,0,257.67c86.12,0,171.72,0,257.7,0c0,3.06,0,5.59,0,8.41
		c-88.59,0-177.02,0-265.78,0C0,177.6,0,89.14,0,0.16z"/>
	<path class="st0" d="M132.77,10.12c-1.89-2.84-4.02-4.68-3.71-5.91c0.42-1.65,2.71-2.83,4.2-4.21c1.26,1.45,3.43,2.84,3.52,4.36
		C136.87,5.81,134.79,7.38,132.77,10.12z"/>
	<path class="st0" d="M176.02,10.12c-2-2.76-4.2-4.52-3.94-5.76c0.35-1.67,2.6-2.93,4.04-4.36c1.31,1.4,3.52,2.7,3.68,4.21
		C179.94,5.65,177.93,7.3,176.02,10.12z"/>
	<path class="st0" d="M218.77,10.12c-1.88-2.84-4-4.69-3.69-5.92c0.42-1.65,2.72-2.82,4.22-4.2c1.26,1.45,3.41,2.85,3.51,4.37
		C222.89,5.81,220.81,7.38,218.77,10.12z"/>
	<path class="st0" d="M267.95,4.26c-2.83,1.9-4.67,4.03-5.9,3.72c-1.65-0.41-2.84-2.71-4.22-4.2c1.45-1.26,2.83-3.42,4.36-3.52
		C263.62,0.16,265.2,2.24,267.95,4.26z"/>
	<path class="st0" d="M52.89,46.8c-2.68,2.12-4.35,4.41-5.6,4.2c-1.68-0.28-3.03-2.49-4.52-3.87c1.34-1.37,2.55-3.63,4.05-3.85
		C48.25,43.07,49.99,45.01,52.89,46.8z"/>
	<path class="st0" d="M83.91,47.19c2.77-1.98,4.38-4.03,5.82-3.91c1.52,0.12,2.88,2.3,4.31,3.58c-1.41,1.47-2.62,3.75-4.28,4.14
		C88.52,51.29,86.72,49.13,83.91,47.19z"/>
	<path class="st0" d="M132.64,41.15c2.1,2.7,4.36,4.4,4.14,5.64c-0.3,1.68-2.52,3.01-3.92,4.49c-1.35-1.35-3.61-2.59-3.8-4.1
		C128.86,45.74,130.81,44.02,132.64,41.15z"/>
	<path class="st0" d="M181.93,47.36c-2.86,1.86-4.73,3.97-5.95,3.64c-1.65-0.44-2.8-2.75-4.17-4.26c1.46-1.24,2.88-3.38,4.41-3.46
		C177.65,43.21,179.21,45.3,181.93,47.36z"/>
	<path class="st0" d="M224.94,46.8c-2.68,2.12-4.35,4.41-5.6,4.2c-1.68-0.28-3.03-2.49-4.52-3.87c1.34-1.37,2.55-3.63,4.05-3.85
		C220.3,43.07,222.04,45.01,224.94,46.8z"/>
	<path class="st0" d="M46.87,84.17c1.97,2.78,4.16,4.57,3.88,5.8c-0.37,1.66-2.64,2.9-4.09,4.33c-1.3-1.41-3.5-2.74-3.63-4.26
		C42.9,88.59,44.93,86.96,46.87,84.17z"/>
	<path class="st0" d="M95.9,90.32c-2.84,1.89-4.68,4.02-5.91,3.71c-1.65-0.42-2.83-2.72-4.21-4.21c1.45-1.26,2.84-3.41,4.37-3.51
		C91.59,86.21,93.16,88.29,95.9,90.32z"/>
	<path class="st0" d="M181.93,90.32c-2.84,1.89-4.68,4.02-5.91,3.71c-1.65-0.42-2.83-2.72-4.21-4.21c1.45-1.26,2.84-3.41,4.37-3.51
		C177.61,86.21,179.18,88.29,181.93,90.32z"/>
	<path class="st0" d="M267.95,89.82c-2.68,2.12-4.35,4.41-5.6,4.2c-1.68-0.28-3.03-2.49-4.52-3.87c1.34-1.37,2.55-3.64,4.05-3.85
		C263.32,86.1,265.06,88.03,267.95,89.82z"/>
	<path class="st0" d="M46.99,10.12c-2-2.76-4.21-4.52-3.95-5.75c0.35-1.67,2.6-2.93,4.04-4.37c1.31,1.39,3.53,2.69,3.68,4.21
		C50.91,5.64,48.9,7.3,46.99,10.12z"/>
	<path class="st0" d="M52.89,133.39c-2.86,1.86-4.72,3.98-5.95,3.66c-1.65-0.43-2.81-2.74-4.18-4.25c1.46-1.24,2.87-3.39,4.4-3.47
		C48.61,129.25,50.17,131.34,52.89,133.39z"/>
	<path class="st0" d="M138.92,132.91c-2.7,2.09-4.4,4.36-5.64,4.13c-1.67-0.3-3-2.52-4.48-3.92c1.35-1.35,2.59-3.61,4.09-3.8
		C134.33,129.14,136.04,131.09,138.92,132.91z"/>
	<path class="st0" d="M224.94,133.42c-2.86,1.85-4.74,3.96-5.96,3.63c-1.65-0.44-2.8-2.75-4.16-4.26c1.47-1.24,2.89-3.38,4.42-3.46
		C220.67,129.25,222.22,131.35,224.94,133.42z"/>
	<path class="st0" d="M261.8,139.19c-1.89-2.84-4.02-4.68-3.71-5.91c0.42-1.65,2.71-2.83,4.2-4.21c1.26,1.45,3.42,2.84,3.52,4.36
		C265.91,134.87,263.83,136.45,261.8,139.19z"/>
	<path class="st0" d="M89.99,10.12c-2-2.76-4.2-4.52-3.94-5.76C86.4,2.7,88.66,1.44,90.09,0c1.31,1.4,3.53,2.7,3.68,4.21
		C93.92,5.65,91.91,7.31,89.99,10.12z"/>
	<path class="st0" d="M89.85,170.21c1.99,2.77,4.18,4.55,3.91,5.78c-0.37,1.67-2.63,2.92-4.07,4.35c-1.3-1.41-3.5-2.72-3.65-4.24
		C85.9,174.67,87.92,173.02,89.85,170.21z"/>
	<path class="st0" d="M138.92,176.19c-2.79,1.97-4.57,4.16-5.8,3.88c-1.66-0.37-2.9-2.64-4.32-4.09c1.41-1.3,2.74-3.49,4.26-3.63
		C134.48,172.22,136.12,174.24,138.92,176.19z"/>
	<path class="st0" d="M181.93,175.93c-2.7,2.09-4.4,4.36-5.64,4.13c-1.67-0.3-3-2.52-4.48-3.92c1.35-1.35,2.59-3.61,4.09-3.8
		C177.34,172.16,179.05,174.11,181.93,175.93z"/>
	<path class="st0" d="M224.94,175.93c-2.7,2.09-4.4,4.36-5.64,4.13c-1.67-0.3-3-2.52-4.48-3.92c1.35-1.35,2.59-3.61,4.09-3.8
		C220.35,172.16,222.07,174.11,224.94,175.93z"/>
	<path class="st0" d="M267.95,176.42c-2.86,1.86-4.72,3.98-5.95,3.66c-1.65-0.43-2.81-2.74-4.18-4.25c1.46-1.24,2.88-3.39,4.4-3.47
		C263.67,172.28,265.23,174.37,267.95,176.42z"/>
	<path class="st0" d="M52.89,219.45c-2.86,1.86-4.73,3.97-5.95,3.64c-1.65-0.44-2.8-2.75-4.17-4.26c1.46-1.24,2.88-3.38,4.41-3.46
		C48.62,215.3,50.17,217.39,52.89,219.45z"/>
	<path class="st0" d="M90,225.23c-2-2.76-4.21-4.52-3.95-5.75c0.35-1.67,2.6-2.93,4.04-4.37c1.31,1.39,3.53,2.7,3.68,4.21
		C93.92,220.76,91.91,222.42,90,225.23z"/>
	<path class="st0" d="M133.15,213.24c1.85,2.86,3.96,4.74,3.63,5.96c-0.44,1.65-2.76,2.8-4.27,4.17c-1.24-1.47-3.38-2.89-3.46-4.42
		C128.98,217.5,131.08,215.95,133.15,213.24z"/>
	<path class="st0" d="M181.93,219.21c-2.79,1.97-4.57,4.16-5.8,3.88c-1.66-0.37-2.9-2.64-4.32-4.09c1.41-1.3,2.74-3.5,4.26-3.63
		C177.51,215.25,179.14,217.27,181.93,219.21z"/>
	<path class="st0" d="M218.65,213.24c2.1,2.7,4.36,4.39,4.14,5.64c-0.3,1.68-2.52,3.01-3.91,4.49c-1.35-1.35-3.6-2.59-3.81-4.1
		C214.88,217.84,216.83,216.12,218.65,213.24z"/>
	<path class="st0" d="M262.17,213.24c1.86,2.86,3.97,4.73,3.65,5.95c-0.44,1.65-2.75,2.81-4.26,4.18c-1.24-1.47-3.38-2.88-3.47-4.41
		C258.01,217.52,260.1,215.96,262.17,213.24z"/>
</g>
</svg>
